<svg width="2050" height="447" viewBox="0 0 2050 447" fill="none" xmlns="http://www.w3.org/2000/svg">
<rect width="2050" height="447" fill="#1F2C4D"/>
<path d="M626.974 292.677L705.826 155H667.651L588.8 292.677H626.974Z" fill="#0098FE"/>
<path d="M587.864 223.839H550L588.485 155H626.348L587.864 223.839Z" fill="#13E1F2"/>
<path d="M588.485 292.677H626.348L587.864 223.839H550L588.485 292.677Z" fill="#01CBFF"/>
<path d="M706.136 223.839H744L705.515 292.677H667.652L706.136 223.839Z" fill="#00CBFD"/>
<path d="M705.515 155H667.652L706.136 223.839H744L705.515 155Z" fill="#03EAFF"/>
<path d="M852.273 206.32C851.751 204.506 851.017 202.902 850.073 201.51C849.128 200.093 847.972 198.9 846.605 197.931C845.263 196.936 843.722 196.178 841.982 195.656C840.266 195.134 838.365 194.873 836.277 194.873C832.374 194.873 828.944 195.843 825.985 197.782C823.052 199.721 820.765 202.542 819.125 206.246C817.484 209.925 816.664 214.424 816.664 219.744C816.664 225.063 817.472 229.587 819.087 233.316C820.703 237.045 822.99 239.891 825.948 241.855C828.906 243.794 832.399 244.763 836.426 244.763C840.08 244.763 843.2 244.117 845.785 242.824C848.395 241.507 850.384 239.655 851.751 237.268C853.143 234.882 853.839 232.061 853.839 228.804L857.12 229.289H837.433V217.134H869.387V226.754C869.387 233.465 867.971 239.232 865.137 244.055C862.303 248.852 858.4 252.556 853.429 255.166C848.457 257.751 842.765 259.044 836.351 259.044C829.192 259.044 822.903 257.466 817.484 254.309C812.065 251.127 807.839 246.615 804.806 240.773C801.799 234.907 800.295 227.947 800.295 219.893C800.295 213.703 801.19 208.185 802.979 203.337C804.794 198.465 807.33 194.339 810.586 190.958C813.842 187.577 817.633 185.005 821.958 183.24C826.284 181.475 830.969 180.592 836.016 180.592C840.341 180.592 844.368 181.226 848.097 182.494C851.825 183.737 855.131 185.502 858.015 187.789C860.923 190.076 863.297 192.798 865.137 195.955C866.976 199.087 868.157 202.542 868.679 206.32H852.273ZM897.548 259.081C893.894 259.081 890.638 258.447 887.779 257.18C884.921 255.887 882.658 253.985 880.993 251.475C879.352 248.939 878.532 245.782 878.532 242.004C878.532 238.822 879.116 236.15 880.285 233.987C881.453 231.825 883.044 230.085 885.057 228.767C887.071 227.45 889.358 226.455 891.918 225.784C894.503 225.113 897.213 224.641 900.047 224.367C903.378 224.019 906.062 223.696 908.101 223.398C910.139 223.075 911.618 222.602 912.538 221.981C913.457 221.359 913.917 220.44 913.917 219.222V218.998C913.917 216.636 913.172 214.809 911.68 213.517C910.214 212.224 908.125 211.578 905.416 211.578C902.557 211.578 900.283 212.212 898.592 213.479C896.902 214.722 895.783 216.288 895.237 218.178L880.546 216.984C881.291 213.504 882.758 210.496 884.945 207.961C887.133 205.401 889.954 203.437 893.41 202.07C896.89 200.678 900.917 199.982 905.491 199.982C908.672 199.982 911.717 200.354 914.626 201.1C917.559 201.846 920.157 203.002 922.419 204.568C924.706 206.134 926.508 208.147 927.825 210.608C929.143 213.044 929.802 215.965 929.802 219.371V258H914.738V250.058H914.29C913.37 251.848 912.14 253.426 910.599 254.793C909.058 256.136 907.206 257.192 905.043 257.963C902.88 258.708 900.382 259.081 897.548 259.081ZM902.097 248.119C904.434 248.119 906.497 247.659 908.287 246.739C910.077 245.795 911.481 244.527 912.5 242.936C913.52 241.345 914.029 239.543 914.029 237.529V231.452C913.532 231.775 912.848 232.073 911.978 232.347C911.133 232.595 910.176 232.831 909.107 233.055C908.038 233.254 906.97 233.44 905.901 233.614C904.832 233.763 903.862 233.9 902.992 234.025C901.128 234.298 899.5 234.733 898.108 235.33C896.716 235.926 895.634 236.734 894.864 237.753C894.093 238.748 893.708 239.99 893.708 241.482C893.708 243.645 894.491 245.298 896.057 246.441C897.648 247.56 899.661 248.119 902.097 248.119ZM942.423 258V181.636H958.307V210.347H958.792C959.488 208.806 960.495 207.24 961.812 205.649C963.155 204.033 964.895 202.691 967.033 201.622C969.195 200.528 971.88 199.982 975.087 199.982C979.263 199.982 983.116 201.075 986.646 203.263C990.175 205.425 992.997 208.694 995.11 213.069C997.223 217.419 998.279 222.876 998.279 229.438C998.279 235.827 997.247 241.221 995.184 245.621C993.146 249.996 990.362 253.314 986.832 255.576C983.327 257.814 979.399 258.932 975.049 258.932C971.967 258.932 969.344 258.423 967.182 257.403C965.044 256.384 963.291 255.104 961.924 253.563C960.557 251.997 959.513 250.418 958.792 248.827H958.084V258H942.423ZM957.972 229.364C957.972 232.769 958.444 235.74 959.389 238.275C960.333 240.811 961.701 242.787 963.49 244.204C965.28 245.596 967.455 246.292 970.016 246.292C972.601 246.292 974.788 245.583 976.578 244.167C978.368 242.725 979.723 240.736 980.642 238.201C981.587 235.64 982.059 232.695 982.059 229.364C982.059 226.058 981.599 223.149 980.68 220.638C979.76 218.128 978.405 216.164 976.615 214.747C974.826 213.33 972.626 212.622 970.016 212.622C967.43 212.622 965.243 213.305 963.453 214.673C961.688 216.04 960.333 217.979 959.389 220.489C958.444 223 957.972 225.958 957.972 229.364ZM1008.88 258V200.727H1024.28V210.72H1024.87C1025.92 207.165 1027.67 204.481 1030.13 202.666C1032.59 200.827 1035.43 199.907 1038.63 199.907C1039.43 199.907 1040.29 199.957 1041.21 200.056C1042.13 200.156 1042.93 200.292 1043.63 200.466V214.561C1042.88 214.337 1041.85 214.138 1040.53 213.964C1039.22 213.79 1038.01 213.703 1036.92 213.703C1034.58 213.703 1032.49 214.213 1030.65 215.232C1028.84 216.226 1027.4 217.618 1026.33 219.408C1025.28 221.198 1024.76 223.261 1024.76 225.598V258H1008.88ZM1051.84 258V200.727H1067.73V258H1051.84ZM1059.82 193.344C1057.46 193.344 1055.43 192.561 1053.74 190.995C1052.08 189.404 1051.25 187.503 1051.25 185.29C1051.25 183.103 1052.08 181.226 1053.74 179.66C1055.43 178.069 1057.46 177.274 1059.82 177.274C1062.18 177.274 1064.2 178.069 1065.86 179.66C1067.55 181.226 1068.4 183.103 1068.4 185.29C1068.4 187.503 1067.55 189.404 1065.86 190.995C1064.2 192.561 1062.18 193.344 1059.82 193.344ZM1106.55 259.119C1100.66 259.119 1095.59 257.925 1091.34 255.539C1087.11 253.128 1083.86 249.722 1081.57 245.322C1079.28 240.898 1078.14 235.665 1078.14 229.625C1078.14 223.733 1079.28 218.563 1081.57 214.113C1083.86 209.664 1087.07 206.196 1091.23 203.71C1095.4 201.224 1100.3 199.982 1105.92 199.982C1109.7 199.982 1113.21 200.591 1116.47 201.809C1119.75 203.002 1122.61 204.804 1125.05 207.215C1127.51 209.626 1129.42 212.659 1130.79 216.313C1132.15 219.942 1132.84 224.193 1132.84 229.065V233.428H1084.48V223.584H1117.89C1117.89 221.297 1117.39 219.271 1116.39 217.506C1115.4 215.741 1114.02 214.362 1112.26 213.368C1110.52 212.348 1108.49 211.839 1106.18 211.839C1103.77 211.839 1101.63 212.398 1099.76 213.517C1097.93 214.61 1096.48 216.089 1095.44 217.954C1094.4 219.793 1093.86 221.844 1093.84 224.106V233.465C1093.84 236.299 1094.36 238.748 1095.4 240.811C1096.47 242.874 1097.97 244.465 1099.91 245.583C1101.85 246.702 1104.15 247.261 1106.81 247.261C1108.58 247.261 1110.19 247.013 1111.66 246.516C1113.13 246.018 1114.38 245.273 1115.43 244.278C1116.47 243.284 1117.26 242.066 1117.81 240.624L1132.5 241.594C1131.76 245.124 1130.23 248.206 1127.92 250.841C1125.63 253.451 1122.67 255.489 1119.04 256.956C1115.44 258.398 1111.27 259.119 1106.55 259.119ZM1159.09 181.636V258H1143.2V181.636H1159.09ZM1223.48 258H1196.41V181.636H1223.71C1231.39 181.636 1238 183.165 1243.54 186.223C1249.09 189.255 1253.35 193.618 1256.33 199.31C1259.34 205.003 1260.84 211.814 1260.84 219.744C1260.84 227.698 1259.34 234.534 1256.33 240.251C1253.35 245.969 1249.06 250.356 1243.47 253.414C1237.9 256.471 1231.24 258 1223.48 258ZM1212.56 244.167H1222.81C1227.58 244.167 1231.6 243.321 1234.86 241.631C1238.14 239.916 1240.6 237.268 1242.24 233.689C1243.9 230.085 1244.74 225.436 1244.74 219.744C1244.74 214.101 1243.9 209.49 1242.24 205.91C1240.6 202.331 1238.15 199.696 1234.89 198.005C1231.64 196.315 1227.62 195.47 1222.85 195.47H1212.56V244.167ZM1309.23 233.614V200.727H1325.12V258H1309.87V247.597H1309.27C1307.98 250.953 1305.83 253.65 1302.82 255.688C1299.84 257.727 1296.2 258.746 1291.89 258.746C1288.07 258.746 1284.7 257.876 1281.79 256.136C1278.88 254.396 1276.61 251.922 1274.97 248.716C1273.35 245.509 1272.53 241.668 1272.51 237.194V200.727H1288.39V234.36C1288.41 237.741 1289.32 240.413 1291.11 242.377C1292.9 244.341 1295.3 245.322 1298.31 245.322C1300.22 245.322 1302.01 244.887 1303.68 244.017C1305.34 243.123 1306.69 241.805 1307.7 240.065C1308.75 238.325 1309.26 236.175 1309.23 233.614ZM1337.82 258V200.727H1353.22V210.72H1353.82C1354.86 207.165 1356.62 204.481 1359.08 202.666C1361.54 200.827 1364.37 199.907 1367.58 199.907C1368.37 199.907 1369.23 199.957 1370.15 200.056C1371.07 200.156 1371.88 200.292 1372.57 200.466V214.561C1371.83 214.337 1370.8 214.138 1369.48 213.964C1368.16 213.79 1366.96 213.703 1365.86 213.703C1363.53 213.703 1361.44 214.213 1359.6 215.232C1357.78 216.226 1356.34 217.618 1355.27 219.408C1354.23 221.198 1353.71 223.261 1353.71 225.598V258H1337.82ZM1395.48 259.081C1391.82 259.081 1388.57 258.447 1385.71 257.18C1382.85 255.887 1380.59 253.985 1378.92 251.475C1377.28 248.939 1376.46 245.782 1376.46 242.004C1376.46 238.822 1377.05 236.15 1378.21 233.987C1379.38 231.825 1380.97 230.085 1382.99 228.767C1385 227.45 1387.29 226.455 1389.85 225.784C1392.43 225.113 1395.14 224.641 1397.98 224.367C1401.31 224.019 1403.99 223.696 1406.03 223.398C1408.07 223.075 1409.55 222.602 1410.47 221.981C1411.39 221.359 1411.85 220.44 1411.85 219.222V218.998C1411.85 216.636 1411.1 214.809 1409.61 213.517C1408.14 212.224 1406.06 211.578 1403.35 211.578C1400.49 211.578 1398.21 212.212 1396.52 213.479C1394.83 214.722 1393.71 216.288 1393.17 218.178L1378.48 216.984C1379.22 213.504 1380.69 210.496 1382.88 207.961C1385.06 205.401 1387.88 203.437 1391.34 202.07C1394.82 200.678 1398.85 199.982 1403.42 199.982C1406.6 199.982 1409.65 200.354 1412.56 201.1C1415.49 201.846 1418.09 203.002 1420.35 204.568C1422.64 206.134 1424.44 208.147 1425.76 210.608C1427.07 213.044 1427.73 215.965 1427.73 219.371V258H1412.67V250.058H1412.22C1411.3 251.848 1410.07 253.426 1408.53 254.793C1406.99 256.136 1405.14 257.192 1402.97 257.963C1400.81 258.708 1398.31 259.081 1395.48 259.081ZM1400.03 248.119C1402.36 248.119 1404.43 247.659 1406.22 246.739C1408.01 245.795 1409.41 244.527 1410.43 242.936C1411.45 241.345 1411.96 239.543 1411.96 237.529V231.452C1411.46 231.775 1410.78 232.073 1409.91 232.347C1409.06 232.595 1408.11 232.831 1407.04 233.055C1405.97 233.254 1404.9 233.44 1403.83 233.614C1402.76 233.763 1401.79 233.9 1400.92 234.025C1399.06 234.298 1397.43 234.733 1396.04 235.33C1394.65 235.926 1393.56 236.734 1392.79 237.753C1392.02 238.748 1391.64 239.99 1391.64 241.482C1391.64 243.645 1392.42 245.298 1393.99 246.441C1395.58 247.56 1397.59 248.119 1400.03 248.119ZM1455.94 224.889V258H1440.05V200.727H1455.19V210.832H1455.86C1457.13 207.501 1459.26 204.866 1462.24 202.927C1465.22 200.963 1468.84 199.982 1473.09 199.982C1477.07 199.982 1480.54 200.852 1483.49 202.592C1486.45 204.332 1488.75 206.817 1490.39 210.049C1492.03 213.256 1492.85 217.084 1492.85 221.533V258H1476.97V224.367C1476.99 220.862 1476.1 218.128 1474.28 216.164C1472.47 214.175 1469.97 213.181 1466.79 213.181C1464.65 213.181 1462.76 213.641 1461.12 214.561C1459.51 215.48 1458.24 216.823 1457.32 218.588C1456.42 220.328 1455.96 222.428 1455.94 224.889Z" fill="url(#paint0_linear_3_125)"/>
<defs>
<linearGradient id="paint0_linear_3_125" x1="924.758" y1="219.5" x2="1252.97" y2="278.656" gradientUnits="userSpaceOnUse">
<stop stop-color="#13E1F2"/>
<stop offset="1" stop-color="#00CBFD"/>
</linearGradient>
</defs>
</svg>
